<svg xmlns="http://www.w3.org/2000/svg" viewBox="0 0 199 197" role="img" aria-label="Aroneu monogram A ink"><path fill="#0C0C0C" d="M 83.500 1.463 C 72.942 3.133, 66.857 5.034, 56.440 9.915 C 25.404 24.459, 5.651 53.360, 1.039 90.974 C 0.450 95.775, 0 120.588, 0 148.224 L 0 197 12 197 L 24 197 24 146.631 C 24 92.255, 24.387 86.973, 29.463 72.090 C 37.278 49.173, 52.567 33.342, 75.186 24.748 C 83.190 21.706, 84.078 21.587, 99 21.545 C 113.593 21.504, 114.960 21.668, 122.370 24.352 C 148.939 33.978, 166.367 55.022, 172.596 85 C 174.116 92.316, 174.418 100.715, 174.760 145.280 L 175.157 197.060 187.329 196.780 L 199.500 196.500 199.587 145.500 C 199.634 117.450, 199.372 97.200, 199.005 100.500 L 198.336 106.500 198.168 100.822 C 197.548 79.884, 190.688 57.752, 179.876 41.809 C 159.158 11.259, 121.429 -4.536, 83.500 1.463 M 0.464 146.500 C 0.464 174.550, 0.592 186.169, 0.749 172.320 C 0.906 158.471, 0.906 135.521, 0.749 121.320 C 0.593 107.119, 0.465 118.450, 0.464 146.500 M 112.973 107.704 C 111.613 108.641, 109.972 110.104, 109.327 110.954 C 106.012 115.325, 107.380 123.711, 111.939 126.957 C 114.551 128.816, 116.295 129, 131.357 129 C 142.058 129, 148.833 128.578, 150.528 127.805 C 153.929 126.256, 156 122.147, 156 116.950 C 156 113.564, 155.374 112.174, 152.600 109.400 L 149.200 106 132.323 106 C 118.056 106, 115.063 106.264, 112.973 107.704"/></svg>
