<svg xmlns="http://www.w3.org/2000/svg" viewBox="0 0 1469 202" role="img" aria-label="Aroneu horizontal reversed gradient lockup"><defs><linearGradient id="aroneuSignature" x1="0" y1="0" x2="1" y2="1"><stop offset="0" stop-color="#E07B10"/><stop offset="1" stop-color="#1C3B54"/></linearGradient></defs><rect width="1469" height="202" fill="url(#aroneuSignature)"/><path fill="#FAFAF8" d="M 599.500 1.044 C 558.515 7.489, 529.360 31.542, 517.704 68.524 C 508.314 98.319, 513.496 134.335, 530.823 159.706 C 535.383 166.383, 548.277 179.125, 555.327 183.919 C 569.931 193.851, 589.345 199.871, 609.500 200.715 C 631.789 201.649, 647.635 198.339, 666 188.916 C 692.960 175.082, 711.469 148.513, 716.054 117.065 C 717.749 105.443, 716.743 84.950, 713.946 74.096 C 702.554 29.897, 666.450 1.911, 619 0.501 C 611.575 0.281, 602.800 0.525, 599.500 1.044 M 1111.500 2.674 C 1078.337 6.807, 1048.349 28.992, 1036.076 58.473 C 1030.408 72.086, 1028.566 81.802, 1028.582 98 C 1028.602 117.626, 1031.299 129.756, 1039.144 145.494 C 1048.700 164.666, 1062.428 177.708, 1083.377 187.520 C 1103.342 196.870, 1125.545 199.085, 1149.522 194.118 C 1173.100 189.234, 1192.415 176.750, 1204.410 158.642 C 1209.209 151.398, 1213.560 143, 1212.514 143 C 1212.077 143, 1198.594 140.259, 1195.375 139.515 C 1193.616 139.109, 1192.580 140.169, 1189.375 145.652 C 1181.924 158.396, 1166.862 169.162, 1149.443 174.195 C 1142.739 176.132, 1139.159 176.491, 1126.500 176.495 C 1113.563 176.499, 1110.468 176.178, 1104 174.158 C 1074.160 164.841, 1055.898 142.145, 1052.005 109.538 C 1047.261 69.810, 1067.608 35.737, 1102.445 25.071 C 1116.894 20.647, 1135.761 20.439, 1151.500 24.531 C 1166.855 28.522, 1181.923 39.608, 1189.420 52.428 C 1192.629 57.916, 1193.718 59.044, 1195.420 58.650 C 1196.564 58.385, 1200.961 57.416, 1205.192 56.497 C 1212.878 54.826, 1212.883 54.823, 1211.882 52.191 C 1202.429 27.326, 1177.476 9, 1145.619 3.526 C 1137.621 2.152, 1119.350 1.695, 1111.500 2.674 M 83.500 5.463 C 72.942 7.133, 66.857 9.034, 56.440 13.915 C 25.404 28.459, 5.651 57.360, 1.039 94.974 C 0.450 99.775, 0 124.588, 0 152.224 L 0 201 12 201 L 24 201 24 150.631 C 24 96.255, 24.387 90.973, 29.463 76.090 C 37.278 53.173, 52.567 37.342, 75.186 28.748 C 83.190 25.706, 84.078 25.587, 99 25.545 C 113.593 25.504, 114.960 25.668, 122.370 28.352 C 148.939 37.978, 166.367 59.022, 172.596 89 C 174.116 96.315, 174.418 104.713, 174.760 149.250 L 175.157 201 187.176 201 L 199.196 201 198.717 149.750 C 198.414 117.307, 197.802 95.792, 197.049 91.120 C 194.335 74.275, 188.196 58.077, 179.876 45.809 C 159.158 15.259, 121.429 -0.536, 83.500 5.463 M 275 103.500 L 275 200 287 200 L 299 200 299 163 L 299 126 321.015 126 L 343.030 126 381.265 162.990 L 419.500 199.979 434.250 199.990 C 442.363 199.995, 449 199.624, 449 199.165 C 449 198.705, 432.267 182.168, 411.817 162.415 C 375.269 127.115, 374.692 126.496, 378.067 126.239 C 396.186 124.861, 408.584 121.844, 419.500 116.156 C 441.310 104.791, 452.874 78.951, 447.501 53.588 C 442.320 29.130, 424.483 13.408, 396.352 8.502 C 389.376 7.286, 377.021 7, 331.369 7 L 275 7 275 103.500 M 777 105.032 L 777 202.063 788.750 201.782 L 800.500 201.500 801 121.528 L 801.500 41.557 868.561 121.528 L 935.622 201.500 947.561 201.500 L 959.500 201.500 959.755 104.750 L 960.010 8 948.011 8 L 936.012 8 935.756 88.113 L 935.500 168.227 868.500 88.167 L 801.500 8.108 789.250 8.054 L 777 8 777 105.032 M 1278.232 61.750 L 1278.575 115.500 1281.179 125.051 C 1286.658 145.144, 1294.326 158.714, 1307.428 171.500 C 1330.929 194.437, 1364.911 203.106, 1398.121 194.635 C 1407.303 192.293, 1420.789 186.364, 1427.410 181.759 C 1444.127 170.133, 1458.138 150.737, 1463.930 131.208 C 1468.598 115.466, 1469 109.607, 1469 57.369 L 1469 8 1457.557 8 L 1446.113 8 1445.764 60.750 C 1445.366 120.952, 1445.380 120.833, 1436.376 138.801 C 1418.116 175.242, 1373.627 188.790, 1338 168.761 C 1334.975 167.060, 1328.626 161.781, 1323.890 157.029 C 1316.783 149.897, 1314.469 146.741, 1310.630 138.945 C 1301.570 120.542, 1301.615 120.915, 1301.235 60.750 L 1300.902 8 1289.395 8 L 1277.889 8 1278.232 61.750 M 607.500 20.579 C 584.435 23.639, 570.714 30.071, 557.829 43.865 C 547.067 55.386, 540.629 68.806, 537.977 85.245 C 536.401 95.010, 537.218 115.155, 539.548 124 C 548.677 158.659, 577.855 180.832, 614.500 180.958 C 644.378 181.060, 669.249 167.335, 683.287 143 C 693.057 126.062, 696.012 98.767, 690.487 76.500 C 688.375 67.989, 680.957 53.458, 675.433 47.010 C 665.383 35.279, 650.069 25.816, 635.892 22.577 C 629.232 21.055, 612.690 19.891, 607.500 20.579 M 299 65.912 L 299 106 342.250 105.983 C 389.927 105.963, 394.344 105.545, 405.697 99.970 C 413.188 96.292, 419.078 89.928, 422.196 82.147 C 424.062 77.491, 424.461 74.570, 424.475 65.500 C 424.489 55.527, 424.229 53.940, 421.689 48.500 C 416.862 38.163, 409.702 32.593, 396.500 28.903 C 388.889 26.775, 386.322 26.646, 343.750 26.246 L 299 25.825 299 65.912 M 1073.466 88.334 C 1070.499 91.301, 1070 92.474, 1070 96.477 C 1070 100.313, 1070.526 101.679, 1072.923 104.077 L 1075.846 107 1093.471 107 L 1111.095 107 1113.572 104.328 C 1118.085 99.458, 1118.013 92.242, 1113.407 87.910 C 1110.939 85.589, 1110.218 85.488, 1093.889 85.184 L 1076.933 84.867 1073.466 88.334 M 112.973 111.704 C 111.613 112.641, 109.972 114.104, 109.327 114.954 C 106.012 119.325, 107.380 127.711, 111.939 130.957 C 114.551 132.816, 116.295 133, 131.357 133 C 142.058 133, 148.833 132.578, 150.528 131.805 C 153.929 130.256, 156 126.147, 156 120.950 C 156 117.564, 155.374 116.174, 152.600 113.400 L 149.200 110 132.323 110 C 118.056 110, 115.063 110.264, 112.973 111.704"/></svg>
