<svg xmlns="http://www.w3.org/2000/svg" viewBox="0 0 1263 875" role="img" aria-label="Aroneu stacked logo paper"><path fill="#FAFAF8" d="M 1068 0.648 C 1046.320 2.677, 1029.032 6.609, 1011.366 13.529 C 942.576 40.472, 901.474 105.343, 904.308 182.500 C 905.425 212.887, 910.956 235.610, 923.295 260.500 C 947.411 309.146, 991.598 340.857, 1049.559 351.115 C 1068.147 354.404, 1098.837 354.407, 1117.404 351.121 C 1145.768 346.101, 1164.847 338.644, 1188.125 323.479 C 1226.221 298.662, 1251.892 258.233, 1260.499 209.500 C 1262.747 196.776, 1263.499 172.837, 1262.100 158.588 C 1258.948 126.496, 1249.459 99.291, 1232.604 74.020 C 1223.941 61.032, 1205.530 42.303, 1192 32.716 C 1162.595 11.880, 1121.072 -0.425, 1082.144 0.160 C 1076.290 0.248, 1069.925 0.468, 1068 0.648 M 161 7.953 C 136.996 9.817, 108.264 18.696, 87.500 30.667 C 64.227 44.085, 41.748 66.255, 27.647 89.696 C 16.666 107.953, 7.845 133.292, 3.348 159.500 C 1.832 168.336, 1.590 180.237, 1.268 261.750 L 0.904 354 21.399 354 L 41.894 354 42.280 262.750 C 42.654 174.622, 42.740 171.124, 44.796 160.500 C 51.296 126.916, 64.357 100.569, 84.467 80.473 C 108.903 56.053, 140.639 43, 175.575 43 C 235.542 43, 284.941 82.434, 301.473 143.500 C 307.538 165.902, 307.356 162.568, 307.952 262 L 308.500 353.500 329.333 353.771 L 350.167 354.041 349.724 265.271 C 349.252 170.621, 349.144 168.378, 343.950 144.500 C 329.713 79.063, 284.151 30.189, 221.832 13.507 C 203.872 8.699, 179.750 6.497, 161 7.953 M 485 182.500 L 485 353 505.500 353 L 526 353 526 287 L 526 221 565.128 221 L 604.256 221 629.721 245.750 C 643.727 259.363, 674.357 289.063, 697.787 311.750 L 740.388 353 765.694 353 C 789.129 353, 791 352.871, 790.998 351.250 C 790.997 350.248, 762.737 322.161, 724.843 285.500 L 658.690 221.500 671.186 220.843 C 710.682 218.764, 739.561 208.474, 760.177 189.132 C 794.794 156.654, 800.420 98.546, 772.891 57.809 C 756.515 33.576, 726.207 18.031, 686.500 13.502 C 675.916 12.295, 655.986 12.017, 579.250 12.010 L 485 12 485 182.500 M 1064.090 36.052 C 1048.179 38.040, 1029.442 43.693, 1015.691 50.654 C 1000.143 58.526, 979.202 77.186, 969.293 92 C 959.054 107.308, 951.851 125.145, 947.782 145.272 C 944.610 160.960, 944.631 189.947, 947.826 207.182 C 953.359 237.019, 965.520 260.752, 985.479 280.661 C 1004.189 299.324, 1024.603 310.043, 1053 316.116 C 1061.868 318.012, 1066.608 318.364, 1083.500 318.381 C 1105.179 318.403, 1115.654 316.879, 1132 311.322 C 1164.143 300.395, 1190.036 278.064, 1205.420 248 C 1225.129 209.484, 1227.439 160.185, 1211.475 118.783 C 1204.598 100.947, 1196.614 88.621, 1182.571 74.156 C 1164.283 55.320, 1139.719 42.551, 1111.857 37.399 C 1101.806 35.540, 1074.380 34.767, 1064.090 36.052 M 526 116.444 L 526 187 600.401 187 C 670.235 187, 675.519 186.877, 686.500 185 C 715.526 180.038, 731.655 169.700, 741.438 149.789 C 746.950 138.570, 749.006 129.277, 748.983 115.685 C 748.934 87.424, 737.828 67.598, 716.058 56.911 C 708.195 53.051, 703.548 51.541, 691 48.767 C 681.894 46.753, 678.275 46.650, 603.750 46.277 L 526 45.888 526 116.444 M 197.389 195.905 C 191.264 199.640, 190 202.693, 190 213.756 C 190 222.429, 190.288 224.127, 192.250 227.001 C 196.910 233.828, 197.900 234, 232.500 234 C 267.100 234, 268.090 233.828, 272.750 227.001 C 274.699 224.145, 275 222.420, 274.996 214.102 C 274.992 203.220, 273.504 199.497, 267.759 195.995 C 264.686 194.121, 262.671 194.007, 232.500 194.007 C 202.837 194.007, 200.273 194.146, 197.389 195.905 M 616 512.689 C 614.075 512.892, 606.425 514.153, 599 515.490 C 548.362 524.610, 506.105 553.389, 481.517 595.500 C 455.575 639.931, 450.091 697.683, 466.947 748.945 C 486.578 808.647, 535.637 851.027, 599.071 863.083 C 615.279 866.164, 647.363 866.890, 663.754 864.548 C 715.530 857.150, 756.958 831.845, 781.170 792.827 C 785.933 785.151, 793.449 770.054, 792.785 769.498 C 792.101 768.925, 757.952 761.724, 757.664 762.091 C 757.487 762.316, 755.655 765.618, 753.592 769.430 C 733.778 806.030, 691.307 829.240, 641.400 830.743 C 631.822 831.031, 621.693 830.753, 616.400 830.055 C 552.137 821.590, 507.710 775.343, 499.973 708.857 C 498.419 695.502, 499.182 668.591, 501.445 657 C 509.943 613.460, 535.101 579.105, 571.371 561.512 C 584.007 555.383, 590.802 553.035, 605.320 549.781 C 614.268 547.776, 618.162 547.504, 637.500 547.533 C 654.303 547.558, 661.626 547.981, 668.500 549.323 C 708.209 557.080, 736.291 575.996, 753.432 606.534 C 756.046 611.190, 758.622 615, 759.156 615 C 760.205 615, 792.337 607.857, 792.748 607.533 C 792.885 607.425, 791.908 604.673, 790.577 601.418 C 770.553 552.450, 721.786 519.998, 657.789 513.054 C 648.728 512.070, 623.917 511.854, 616 512.689 M 0 698.500 L 0 875 20.997 875 L 41.993 875 42.247 728.190 L 42.500 581.381 94.534 643.440 C 123.153 677.573, 178.503 743.629, 217.534 790.232 L 288.500 874.964 310.253 874.982 L 332.006 875 331.753 698.750 L 331.500 522.500 310.753 522.230 L 290.007 521.959 289.753 669.396 L 289.500 816.832 217 730.289 C 177.125 682.691, 121.550 616.363, 93.500 582.893 L 42.500 522.040 21.250 522.020 L 0 522 0 698.500 M 912.268 613.750 C 912.661 712.347, 912.701 713.183, 918.120 735 C 929.350 780.217, 954.244 816.867, 989.336 839.846 C 1018.386 858.869, 1050.411 868.269, 1086 868.217 C 1122.643 868.163, 1153.611 858.919, 1183.592 839.083 C 1217.877 816.400, 1242.459 780.555, 1253.441 737.231 C 1259.570 713.053, 1259.377 716.787, 1259.747 615.250 L 1260.087 522 1239.543 522 L 1219 522 1219 608.449 C 1219 701.924, 1218.757 707.211, 1213.492 728.500 C 1200.230 782.118, 1162.878 819.681, 1112 830.563 C 1094.323 834.344, 1068.507 833.399, 1051.007 828.330 C 995.809 812.344, 960.153 765.338, 954.039 700.500 C 953.419 693.921, 953.001 655.844, 953.001 605.750 L 953 522 932.452 522 L 911.903 522 912.268 613.750 M 542.008 665.213 C 539.538 666.471, 536.464 669.075, 535.179 671 C 533.059 674.176, 532.873 675.396, 533.171 684.180 C 533.526 694.612, 534.560 697.087, 540.383 701.438 C 543.008 703.399, 544.640 703.514, 573.816 703.793 C 609.211 704.130, 611.112 703.810, 615.804 696.720 C 618.236 693.046, 618.500 691.756, 618.496 683.573 C 618.492 672.963, 617.057 669.442, 611.274 665.847 C 607.559 663.537, 607.020 663.495, 577 663.213 C 546.920 662.930, 546.438 662.957, 542.008 665.213"/></svg>
